<?xml version="1.0"?>
<svg xmlns="http://www.w3.org/2000/svg" xmlns:xlink="http://www.w3.org/1999/xlink" xmlns:svgjs="http://svgjs.com/svgjs" version="1.1" width="512" height="512" x="0" y="0" viewBox="0 0 24 24" style="enable-background:new 0 0 512 512" xml:space="preserve" class=""><g><path xmlns="http://www.w3.org/2000/svg" d="m7 20h-5v-7.5a.5.5 0 0 1 .5-.5h4a.5.5 0 0 1 .5.5zm7.5-15.5a.5.5 0 0 0 -.5-.5h-4a.5.5 0 0 0 -.5.5v15.5h5zm7 3.5h-4a.5.5 0 0 0 -.5.5v11.5h5v-11.5a.5.5 0 0 0 -.5-.5z" data-original="#000000"/></g></svg>
